PathFileType	4	(X/Y/Z)	./resultDataOpenSim/trcMotMarkerGrf/sub10/qtm-13-02.trc
DataRate	CameraRate	NumFrames	NumMarkers	Units	OrigDataRate	OrigDataStartFrame	OrigNumFrames
250.000000	250.000000	14	24	m	250.000000	118	468
Frame#	Time	L.Toe.Tip			R.Toe.Tip			L.Ankle.Lat			R.Ankle.Lat			L.Ankle.Med			R.Ankle.Med			L.Heel			R.Heel			L.Knee.Lat			R.Knee.Lat			L.Knee.Med			R.Knee.Med			L.Thigh.Upper			R.Thigh.Upper			L.ASIS			R.ASIS			V.Sacral			L.Acromium			R.Acromium			C7			L.Elbow			R.Elbow			L.Wrist.Lat			R.Wrist.Lat
		X1	Y1	Z1	X2	Y2	Z2	X3	Y3	Z3	X4	Y4	Z4	X5	Y5	Z5	X6	Y6	Z6	X7	Y7	Z7	X8	Y8	Z8	X9	Y9	Z9	X10	Y10	Z10	X11	Y11	Z11	X12	Y12	Z12	X13	Y13	Z13	X14	Y14	Z14	X15	Y15	Z15	X16	Y16	Z16	X17	Y17	Z17	X18	Y18	Z18	X19	Y19	Z19	X20	Y20	Z20	X21	Y21	Z21	X22	Y22	Z22	X23	Y23	Z23	X24	Y24	Z24

118	0.468	-0.39592683	0.065095616	-0.14919805	-0.74074983	0.038946758	-0.01406768	-0.52723035	0.085386335	-0.18681316	-0.88856774	0.055748398	0.0056958636	-0.52211846	0.10854382	-0.10221359	-0.85523899	0.084686622	-0.072150246	-0.59079101	0.048545155	-0.14934076	-0.92925239	0.034436921	-0.051002375	-0.51632786	0.47341001	-0.19430678	-0.80221421	0.45067932	0.064602139	-0.51255633	0.45384287	-0.074107236	-0.76974579	0.45208519	-0.059636952	-0.6493795	0.8386195	-0.24963691	-0.74604033	0.86369955	0.12229325	-0.61108538	0.94717489	-0.17212447	-0.65044891	0.95209503	0.06723612	-0.82348861	0.96921505	-0.093832891	-0.66566884	1.4258676	-0.19961711	-0.67850566	1.4147963	0.12042529	-0.75205932	1.4493566	-0.045169986	-0.82484004	1.1315001	-0.27976871	-0.70865221	1.063211	0.20454628	-0.76421246	0.89504059	-0.31003433	-0.49032269	0.93966679	0.22288968
119	0.472	-0.37768996	0.067123952	-0.14483656	-0.7406845	0.038857752	-0.014124127	-0.5092194	0.083780191	-0.18350893	-0.88848005	0.055808422	0.0052873313	-0.50533529	0.10780566	-0.099026852	-0.85501403	0.084548073	-0.07257275	-0.57215789	0.045670358	-0.14609729	-0.9291236	0.034382068	-0.051520826	-0.50993924	0.47209808	-0.19410517	-0.80045996	0.45035695	0.064288264	-0.506451	0.45276541	-0.074029972	-0.76815242	0.4515078	-0.06007094	-0.64293323	0.83781721	-0.24956787	-0.74201757	0.86298914	0.12163394	-0.6048601	0.94616811	-0.17174688	-0.64601074	0.95119896	0.067532197	-0.8173031	0.96855932	-0.093780948	-0.6597093	1.4246347	-0.1993348	-0.67316087	1.4137118	0.12068728	-0.74647552	1.4482388	-0.044980422	-0.82155814	1.1316963	-0.28032124	-0.7010815	1.0620785	0.20563472	-0.76245748	0.89471842	-0.3099481	-0.48113491	0.94119482	0.22334151
120	0.476	-0.35970914	0.069316356	-0.1404238	-0.74059996	0.038775836	-0.01419333	-0.49131265	0.082438631	-0.18022379	-0.88835731	0.055876665	0.0048867756	-0.48846781	0.10726276	-0.095927933	-0.85473726	0.08440987	-0.073012532	-0.55344278	0.043104227	-0.14287013	-0.92911739	0.034325873	-0.051806944	-0.50361154	0.47067071	-0.19389521	-0.7985718	0.44999839	0.063974976	-0.50048403	0.45150844	-0.074086304	-0.76659598	0.45085598	-0.060640888	-0.63648435	0.83695022	-0.24951058	-0.73792091	0.86225639	0.12093558	-0.59868047	0.94508965	-0.17139836	-0.64153304	0.95026426	0.06780691	-0.81102297	0.96789071	-0.093403212	-0.65371465	1.4233292	-0.19907418	-0.66779195	1.4125527	0.12091547	-0.74090711	1.4470656	-0.044845259	-0.81809799	1.1318547	-0.28070106	-0.69351079	1.0609091	0.20670121	-0.76057147	0.89437388	-0.30988475	-0.47202477	0.94265956	0.2237622
121	0.48	-0.34204936	0.071654015	-0.13608655	-0.74052574	0.038674025	-0.014294984	-0.47359974	0.081303168	-0.17705017	-0.88818875	0.055939957	0.0044877434	-0.47161362	0.10693136	-0.09294471	-0.85450792	0.084230064	-0.07355668	-0.53479312	0.040827544	-0.13963288	-0.9292589	0.034296163	-0.051833361	-0.49735031	0.46913341	-0.19366093	-0.7965569	0.4496046	0.063658029	-0.49456634	0.45009898	-0.074160009	-0.76503163	0.45014214	-0.061308775	-0.62998051	0.83602242	-0.24943688	-0.73408041	0.86153141	0.12060389	-0.59244737	0.94395239	-0.17105021	-0.63701939	0.94928264	0.068065762	-0.80500084	0.96704059	-0.093312866	-0.64770069	1.4219515	-0.1988333	-0.66244471	1.4113178	0.1210898	-0.73534852	1.4458398	-0.044771809	-0.81422467	1.1319671	-0.28054599	-0.6859428	1.0597037	0.2077421	-0.75860828	0.89399353	-0.30982798	-0.46297586	0.94407606	0.22413502
122	0.484	-0.32473898	0.074135013	-0.13192963	-0.74046967	0.038541999	-0.014433008	-0.45611357	0.080336116	-0.17404192	-0.88795093	0.055994115	0.0041052308	-0.45487597	0.10682198	-0.090118083	-0.85435421	0.084007527	-0.07419085	-0.51631723	0.038832024	-0.13645936	-0.92944843	0.034301315	-0.051787803	-0.49117725	0.46747768	-0.19341075	-0.79441094	0.4491764	0.063335622	-0.48864668	0.4485656	-0.074174307	-0.76322908	0.44945217	-0.061898352	-0.62332763	0.83504859	-0.24932103	-0.73057305	0.86079251	0.12073813	-0.58612502	0.94276121	-0.17069182	-0.63246806	0.94824854	0.068308156	-0.7995024	0.96590702	-0.093815529	-0.64168835	1.4205071	-0.19861949	-0.65713738	1.4100182	0.12120602	-0.7297885	1.444563	-0.044743166	-0.8099297	1.132012	-0.27984632	-0.67838022	1.0584657	0.20875725	-0.75665611	0.89356246	-0.3097491	-0.45398858	0.94544851	0.22445322
123	0.488	-0.30777957	0.076785496	-0.12799125	-0.7404082	0.038416343	-0.01458389	-0.43884944	0.079568722	-0.1712092	-0.88755258	0.056087089	0.0037671432	-0.43835708	0.10693867	-0.08747451	-0.85421648	0.0837875	-0.074817608	-0.49806924	0.037117522	-0.1334644	-0.92955375	0.034327097	-0.051917984	-0.485095	0.46570208	-0.19316415	-0.79212748	0.44871628	0.063013012	-0.4827096	0.446931	-0.074093277	-0.76096897	0.44887213	-0.062245396	-0.6165242	0.83403482	-0.24916237	-0.72708631	0.85998111	0.12096613	-0.579728	0.94151549	-0.17032471	-0.62787848	0.94716775	0.068533076	-0.79468805	0.96459612	-0.094760807	-0.63568751	1.4190046	-0.19844089	-0.65183544	1.4086778	0.12129303	-0.72422058	1.4432351	-0.044744817	-0.80540817	1.131964	-0.27886296	-0.67082638	1.0572006	0.20974934	-0.75479586	0.89307804	-0.30962394	-0.44506319	0.94676861	0.22471055
124	0.492	-0.29117841	0.079666792	-0.12423482	-0.74031144	0.038353517	-0.014708973	-0.42183677	0.07907099	-0.16854876	-0.88688866	0.056295515	0.0035015522	-0.42216592	0.10726878	-0.085049337	-0.85404333	0.083604319	-0.075378428	-0.48011838	0.035678682	-0.13071447	-0.92954592	0.034362922	-0.052273766	-0.47907339	0.46385095	-0.19292903	-0.78970958	0.44823016	0.062699395	-0.47676099	0.4452155	-0.073909507	-0.75833372	0.44836402	-0.062412496	-0.60973176	0.83296473	-0.24899105	-0.72335026	0.85909471	0.12095766	-0.57329556	0.9402155	-0.16994728	-0.62325076	0.94604776	0.068742007	-0.7904711	0.96327283	-0.095983071	-0.62968438	1.4174583	-0.19828555	-0.64648573	1.407316	0.12138979	-0.71864701	1.4418576	-0.044769931	-0.8009319	1.131818	-0.27793379	-0.66328598	1.0559144	0.21072106	-0.7530231	0.89255581	-0.30945745	-0.43620083	0.94802837	0.22491082
125	0.496	-0.27495399	0.082868084	-0.12057539	-0.74018066	0.038375309	-0.014784431	-0.40513844	0.078890706	-0.16606395	-0.88608051	0.056611768	0.0033057762	-0.40644542	0.10776697	-0.082939864	-0.85383736	0.083457544	-0.075877744	-0.46255141	0.03449626	-0.12823486	-0.92948561	0.034412532	-0.052721725	-0.47306165	0.46199697	-0.1926845	-0.78717783	0.44772211	0.062398181	-0.47081587	0.44343803	-0.073624355	-0.75563836	0.44778413	-0.062623767	-0.6030908	0.83181887	-0.24882519	-0.71939553	0.85820273	0.12073438	-0.56687258	0.93886391	-0.16956326	-0.61858779	0.94489118	0.068944385	-0.78639255	0.96194081	-0.097555371	-0.62365984	1.4158834	-0.19813225	-0.64108126	1.4059304	0.12150486	-0.71308422	1.4404334	-0.044814387	-0.79673993	1.1316021	-0.27741024	-0.65576428	1.0546113	0.21167399	-0.75122097	0.89201808	-0.30927904	-0.42741289	0.94922786	0.22507262
126	0.5	-0.25913619	0.086450595	-0.11694634	-0.74005245	0.038441914	-0.014825807	-0.38880182	0.0790374	-0.16375946	-0.88558366	0.056876855	0.0031008066	-0.39136543	0.10835004	-0.08125561	-0.85362155	0.083334103	-0.076326469	-0.4454202	0.03353739	-0.12607251	-0.92942961	0.034480785	-0.05312576	-0.46702247	0.46018294	-0.19239719	-0.78457509	0.44718654	0.062102221	-0.46489618	0.44161158	-0.073234904	-0.75309937	0.44703013	-0.063023866	-0.59655515	0.83059362	-0.24864483	-0.71535873	0.85735904	0.12045351	-0.56047553	0.93746554	-0.16918457	-0.6139025	0.943702	0.069158273	-0.78177785	0.96044336	-0.099547451	-0.61761822	1.4142811	-0.19797878	-0.63566622	1.4045103	0.12161567	-0.70757218	1.438966	-0.044870326	-0.79287061	1.131351	-0.27745032	-0.64826585	1.0532942	0.21260832	-0.74925342	0.89147447	-0.30911229	-0.4187111	0.95037026	0.22520784
127	0.504	-0.24378097	0.09037809	-0.11335877	-0.73997395	0.038470341	-0.014881248	-0.37286236	0.079493683	-0.16164088	-0.88571973	0.056942355	0.0027982354	-0.37706792	0.10893443	-0.079966135	-0.85340945	0.083226146	-0.076724761	-0.42871404	0.032771173	-0.12428433	-0.92939888	0.034567461	-0.053429853	-0.46095643	0.45840956	-0.19204651	-0.78195416	0.44660917	0.061796337	-0.45903218	0.43974663	-0.072732437	-0.7506719	0.446132	-0.063577927	-0.58999841	0.82929253	-0.24842647	-0.71129478	0.85654319	0.12019496	-0.55407381	0.93602757	-0.16880824	-0.60920443	0.94248612	0.069392422	-0.77595119	0.95859798	-0.10169481	-0.611574	1.4126438	-0.19783833	-0.63028201	1.4030608	0.1217037	-0.70216556	1.4374645	-0.044925467	-0.78914023	1.1310681	-0.27789364	-0.64079302	1.0519666	0.21352185	-0.74707385	0.89091851	-0.30896784	-0.41010066	0.95145588	0.22531348
128	0.508	-0.2289587	0.094525795	-0.10988445	-0.73996557	0.038414566	-0.014972805	-0.35735757	0.080219742	-0.15972767	-0.886239	0.056865969	0.0024263021	-0.36358085	0.10949398	-0.078906741	-0.85320272	0.083132939	-0.077075405	-0.41238899	0.032174439	-0.1228851	-0.92939048	0.034674488	-0.05364391	-0.45486392	0.4566741	-0.19161964	-0.77933633	0.44597775	0.061471175	-0.45325607	0.43785872	-0.072107957	-0.74810606	0.44522266	-0.064106585	-0.58336546	0.82791527	-0.24816424	-0.70716394	0.85568599	0.11993354	-0.54762361	0.93455825	-0.16841202	-0.604482	0.94124551	0.069639047	-0.76844389	0.95632338	-0.10331612	-0.60552601	1.4109727	-0.19771526	-0.62493157	1.4015981	0.12177121	-0.69684808	1.4359402	-0.044986416	-0.78533103	1.1307302	-0.2784207	-0.63334749	1.0506313	0.21441027	-0.74471386	0.89034503	-0.30885794	-0.40158414	0.95248599	0.22538369
129	0.512	-0.21471549	0.098749898	-0.10659919	-0.74000373	0.038316106	-0.015064283	-0.34231515	0.081159986	-0.15804202	-0.88668319	0.056819708	0.0020924548	-0.35072857	0.11007035	-0.077930818	-0.85299933	0.083057259	-0.077384457	-0.39644948	0.03171992	-0.12182539	-0.92939215	0.034810417	-0.053802351	-0.4486973	0.4550012	-0.19110239	-0.77667386	0.44529473	0.061141	-0.4475867	0.4359688	-0.07136082	-0.74511222	0.44443611	-0.064396019	-0.5766697	0.82645879	-0.24785504	-0.70289874	0.85473704	0.1195986	-0.54110988	0.93306838	-0.16797528	-0.59971887	0.93997819	0.069892097	-0.75927362	0.95370887	-0.10382097	-0.59947169	1.4092771	-0.19760341	-0.61958672	1.4001295	0.12182638	-0.6914195	1.4343961	-0.045112141	-0.78133338	1.1303214	-0.27877218	-0.62593532	1.049291	0.21527033	-0.74220837	0.88976407	-0.30879949	-0.39316369	0.95346841	0.22541863
130	0.516	-0.20106035	0.10292243	-0.10356681	-0.74005208	0.038237127	-0.015114236	-0.32776351	0.082252379	-0.15657686	-0.88687939	0.056893346	0.0018550258	-0.33821923	0.11071733	-0.076958209	-0.85280129	0.083000906	-0.077658613	-0.38097817	0.031385271	-0.12101082	-0.92939331	0.034986052	-0.053932178	-0.4423835	0.4534275	-0.19049854	-0.77388321	0.4445757	0.060833213	-0.44201999	0.43409996	-0.070511579	-0.74159787	0.44379833	-0.064380471	-0.5699386	0.82492011	-0.24749565	-0.69847798	0.85370741	0.11915821	-0.53455263	0.93156918	-0.16749586	-0.59491761	0.93868201	0.070156519	-0.74920948	0.95099996	-0.10352528	-0.59342748	1.4075649	-0.19750483	-0.61422293	1.3986537	0.12187068	-0.68564044	1.4328284	-0.045370421	-0.77715423	1.1298483	-0.27888083	-0.61856621	1.0479497	0.21610127	-0.73957036	0.88918974	-0.30880653	-0.38484059	0.95441153	0.22542333
131	0.52	-0.18798445	0.10691709	-0.10084157	-0.74009512	0.038194615	-0.015117156	-0.31375242	0.083427293	-0.15528634	-0.88689929	0.057076649	0.0017006659	-0.32590383	0.11143789	-0.075960223	-0.85261455	0.082963983	-0.077908881	-0.36606965	0.031167568	-0.12034925	-0.92938679	0.035208395	-0.054050495	-0.43589329	0.45195862	-0.18984801	-0.77092394	0.44383624	0.060558696	-0.43653202	0.43226855	-0.069610539	-0.73779889	0.44319406	-0.064231914	-0.56318925	0.82329818	-0.24708985	-0.69394659	0.85264256	0.11866026	-0.52799124	0.93006135	-0.16698828	-0.59009203	0.93735817	0.070437791	-0.73953993	0.94848989	-0.10347332	-0.58741475	1.4058411	-0.19743205	-0.60884632	1.3971751	0.12190094	-0.6796204	1.4312403	-0.045724003	-0.77285061	1.1293265	-0.27882297	-0.61124674	1.0466128	0.21690295	-0.73681836	0.88861399	-0.30888	-0.37661709	0.95531614	0.2254012
